<?xml version="1.0" encoding="UTF-8" standalone="no"?>
<svg
   xmlns:dc="http://purl.org/dc/elements/1.1/"
   xmlns:cc="http://creativecommons.org/ns#"
   xmlns:rdf="http://www.w3.org/1999/02/22-rdf-syntax-ns#"
   xmlns:svg="http://www.w3.org/2000/svg"
   xmlns="http://www.w3.org/2000/svg"
   viewBox="0 0 590.46667 357.35999"
   height="357.35999"
   width="590.46667"
   xml:space="preserve"
   id="svg2"
   version="1.1"><metadata
     id="metadata8"><rdf:RDF><cc:Work
         rdf:about=""><dc:format>image/svg+xml</dc:format><dc:type
           rdf:resource="http://purl.org/dc/dcmitype/StillImage" /></cc:Work></rdf:RDF></metadata><defs
     id="defs6" /><g
     transform="matrix(1.3333333,0,0,-1.3333333,0,357.36)"
     id="g10"><g
       transform="scale(0.1)"
       id="g12"><path
         id="path14"
         
         d="M 22.6797,309.18 C 7.57031,323.691 0,339.262 0,355.93 c 0,12.961 4.16797,24.218 12.5,33.789 15.7383,18.511 37.793,27.761 66.1875,27.761 H 296.684 c 13.582,0.309 25.461,1.469 35.64,3.481 10.188,2 16.664,3.617 19.446,4.848 v -80.52 h -4.629 v 5.539 c 0,13.891 -4.168,25.152 -12.5,33.793 -8.332,8.641 -19.598,13.117 -33.786,13.43 H 238.367 V 126.352 c 0.617,-11.102 5.703,-19.43 15.278,-24.993 4.316,-2.4684 9.093,-3.6988 14.343,-3.6988 h 6.02 V 93.0313 H 133.301 v 4.6289 h 6.019 c 8.02,0 14.883,2.7698 20.598,8.3278 5.703,5.563 8.711,12.192 9.023,19.903 v 272.16 H 78.6875 c -12.6562,0 -23.7656,-2.313 -33.3281,-6.942 -19.4375,-9.257 -29.1563,-23.769 -29.1563,-43.507 0,-11.743 3.6992,-23.774 11.1055,-36.102 l -4.6289,-2.32" /><path
         id="path16"
         
         d="m 424.434,203.191 h 92.574 l -44.899,113.86 z M 669.281,97.6602 h 4.164 V 93.0313 H 525.801 v 4.6289 h 4.164 c 6.781,0 11.805,2.0781 15.039,6.2498 3.242,4.16 4.863,8.102 4.863,11.801 0,3.711 -0.773,7.41 -2.312,11.109 l -22.684,56.93 H 416.566 L 392.5,126.82 c -1.547,-4.011 -2.312,-7.789 -2.312,-11.34 0,-3.55 1.621,-7.41 4.855,-11.57 3.242,-4.1717 8.402,-6.2498 15.508,-6.2498 h 3.703 v -4.6289 h -99.051 v 4.6289 h 4.168 c 7.098,0 14.188,2.1601 21.289,6.4808 7.094,4.32 12.957,10.8 17.586,19.437 l 106.922,242.07 c 14.5,30.551 22.215,50.75 23.137,60.633 h 4.172 L 629.941,124.512 c 4.625,-8.961 10.485,-15.672 17.586,-20.141 7.098,-4.4726 14.348,-6.7108 21.754,-6.7108" /><path
         id="path18"
         
         d="m 814.609,412.398 c -8.027,0 -14.89,-2.859 -20.593,-8.57 -5.719,-5.707 -8.727,-12.578 -9.032,-20.59 V 106.922 c 0,-21.9103 -5.863,-41.5001 -17.586,-58.7814 C 755.668,30.8516 741.316,18.5117 724.355,11.1094 707.379,3.71094 690.406,0 673.441,0 669.43,0 665.41,0.160156 661.406,0.460938 V 4.62109 c 18.516,7.73051 32.168,21.07031 40.961,40.03911 8.793,18.9804 13.192,40.1992 13.192,63.6488 v 274.929 c -0.309,11.41 -5.25,19.903 -14.813,25.461 -4.629,2.461 -9.562,3.699 -14.808,3.699 h -6.016 v 4.633 h 140.703 v -4.633 h -6.016" /><path
         id="path20"
         
         d="m 862.273,97.6602 c 8.02,0 14.883,2.8518 20.598,8.5698 5.703,5.7 8.711,12.559 9.024,20.59 v 257.801 c -0.922,10.801 -6.016,18.82 -15.274,24.078 -4.629,2.461 -9.414,3.699 -14.348,3.699 h -6.019 v 4.633 h 177.276 c 9.56,0 20.05,0.918 31.47,2.77 11.41,1.847 19.44,3.699 24.07,5.558 v -81 h -4.63 v 5.551 c 0,13.879 -4.09,25.07 -12.27,33.559 -8.18,8.48 -19.21,13.031 -33.09,13.652 h -77.756 v -134.68 h 61.096 c 11.41,0.297 20.83,4.231 28.23,11.789 7.41,7.559 11.11,16.899 11.11,28.008 v 4.16 h 4.63 v -106.91 h -4.63 v 3.703 c 0,15.43 -6.17,26.84 -18.51,34.25 -6.18,3.387 -12.96,5.239 -20.37,5.547 H 961.324 V 112.93 h 60.626 c 22.53,0 41.43,6.492 56.7,19.449 15.28,12.961 26.62,31.312 34.02,55.082 h 4.63 L 1096.01,93.0313 H 856.254 v 4.6289 h 6.019" /><path
         id="path22"
         
         d="m 1567.19,97.6602 h 7.4 v -4.6289 h -138.85 v 4.1679 h 6.94 c 5.24,0 9.72,2.0821 13.42,6.2418 3.71,4.168 5.25,8.719 4.63,13.661 l -18.05,168.007 -87.01,-149.961 c -11.42,-19.136 -17.29,-36.2574 -17.59,-51.3785 h -4.63 L 1214.5,283.73 1196.45,117.102 c -0.62,-4.942 0.92,-9.493 4.62,-13.661 3.71,-4.1597 8.18,-6.2418 13.43,-6.2418 h 6.94 v -4.1679 h -96.73 v 4.6289 h 7.4 c 8.64,0 16.12,2.6208 22.45,7.8708 6.32,5.25 10.1,12.34 11.34,21.289 l 38.42,296.68 h 4.16 L 1351.96,187.461 1489.89,423.5 h 4.17 l 39.34,-296.68 c 1.54,-8.949 5.48,-16.039 11.8,-21.289 6.32,-5.25 13.66,-7.8708 21.99,-7.8708" /><path
         id="path24"
         
         d="m 1948.1,412.398 c -7.72,0 -14.34,-2.707 -19.9,-8.109 -5.55,-5.398 -8.49,-11.949 -8.79,-19.668 v -238.82 c 0,-20.68 1.39,-38.121 4.16,-52.3127 l 1.4,-6.9375 h -4.17 L 1687.06,309.18 V 125.43 c 0,-7.711 2.78,-14.27 8.33,-19.668 5.56,-5.403 12.19,-8.1018 19.9,-8.1018 h 8.8 v -4.6289 h -140.24 v 4.6289 h 8.33 c 8.02,0 14.81,2.6988 20.36,8.1018 5.56,5.398 8.33,12.109 8.33,20.129 v 240.218 c 0,20.371 -1.38,37.332 -4.16,50.922 l -0.93,6.938 h 4.17 L 1853.69,201.34 v 182.82 c -0.32,8.02 -3.25,14.731 -8.8,20.129 -5.55,5.402 -12.19,8.109 -19.9,8.109 h -8.33 v 4.633 h 140.24 v -4.633 h -8.8" /><path
         id="path26"
         
         d="m 1988.37,97.6602 c 8.02,0 14.88,2.8518 20.59,8.5698 5.71,5.7 8.72,12.559 9.03,20.59 v 256.879 c -0.31,8.02 -3.32,14.813 -9.03,20.371 -5.71,5.551 -12.57,8.328 -20.59,8.328 h -6.02 v 4.633 h 140.71 l -0.47,-4.633 h -5.55 c -8.03,0 -14.97,-2.777 -20.83,-8.328 -5.87,-5.558 -8.8,-12.351 -8.8,-20.371 V 126.82 c 0,-8.031 2.93,-14.89 8.8,-20.59 5.86,-5.718 12.8,-8.5698 20.83,-8.5698 h 5.55 l 0.47,-4.6289 h -140.71 v 4.6289 h 6.02" /><path
         id="path28"
         
         d="m 2343.37,86.7813 c -59.55,0.1601 -106.3,15.1987 -140.24,45.1287 -33.95,29.93 -50.91,70.969 -50.91,123.11 0,52.152 16.81,93.281 50.45,123.351 33.62,30.09 79.75,45.129 138.38,45.129 44.74,0 83.16,-8.328 115.26,-24.988 l 0.92,-79.614 h -3.7 c -15.74,56.774 -51.68,85.172 -107.85,85.172 -36.41,0 -65.18,-13.199 -86.31,-39.582 -21.15,-26.379 -31.71,-62.418 -31.71,-108.066 0,-45.672 10.1,-81.922 30.32,-108.774 20.2,-26.839 47.59,-40.726 82.15,-41.66 35.79,0 63.1,8.953 81.92,26.852 19.13,18.512 32.4,50.289 39.81,95.34 h 3.71 l 4.62,-79.61 C 2445.2,107.219 2402.92,86.6406 2343.37,86.7813" /><path
         id="path30"
         
         d="m 2589.14,203.191 h 92.57 l -44.9,113.86 z M 2833.98,97.6602 h 4.16 V 93.0313 H 2690.5 v 4.6289 h 4.17 c 6.78,0 11.79,2.0781 15.04,6.2498 3.24,4.16 4.86,8.102 4.86,11.801 0,3.711 -0.77,7.41 -2.31,11.109 l -22.69,56.93 h -108.3 l -24.07,-56.93 c -1.55,-4.011 -2.32,-7.789 -2.32,-11.34 0,-3.55 1.62,-7.41 4.87,-11.57 3.24,-4.1717 8.4,-6.2498 15.5,-6.2498 h 3.71 v -4.6289 h -99.06 v 4.6289 h 4.17 c 7.1,0 14.19,2.1601 21.29,6.4808 7.1,4.32 12.96,10.8 17.59,19.437 l 106.91,242.07 c 14.51,30.551 22.22,50.75 23.15,60.633 h 4.17 l 137.46,-301.769 c 4.63,-8.961 10.49,-15.672 17.59,-20.141 7.1,-4.4726 14.35,-6.7108 21.75,-6.7108" /><path
         id="path32"
         
         d="m 3112.62,454.98 c -5.56,-5.55 -12.27,-8.339 -20.14,-8.339 -7.87,0 -14.66,2.789 -20.36,8.339 -5.71,5.551 -8.57,12.258 -8.57,20.129 0,7.871 2.86,14.653 8.57,20.36 5.7,5.722 12.49,8.57 20.36,8.57 7.87,0 14.58,-2.848 20.14,-8.57 5.55,-5.707 8.33,-12.489 8.33,-20.36 0,-7.871 -2.78,-14.578 -8.33,-20.129 z m -145.8,-29.171 c 4.63,-1.84 12.73,-3.7 24.3,-5.539 11.57,-1.86 22.13,-2.79 31.7,-2.79 h 147.65 c 15.12,0 26.69,0.848 34.72,2.551 8.01,1.688 12.64,2.86 13.88,3.469 v -4.16 L 3047.82,112.48 h 97.2 c 19.74,0 36.94,6.629 51.6,19.899 14.66,13.262 25.07,31.16 31.24,53.68 h 4.63 l -16.66,-93.0277 h -255.49 v 4.1679 l 169.87,300.8518 h -112.02 c -14.19,-0.313 -25.53,-4.711 -34.01,-13.192 -8.5,-8.5 -12.73,-19.839 -12.73,-34.031 v -5.539 h -4.63 v 80.52" /><path
         id="path34"
         
         d="m 3585.64,412.398 h -6.48 c -9.26,0 -18.05,-2.628 -26.38,-7.867 -8.34,-5.25 -14.97,-11.582 -19.9,-18.98 L 3441.7,240.219 V 126.82 c 0,-8.031 2.93,-14.89 8.79,-20.59 5.86,-5.718 12.8,-8.5698 20.83,-8.5698 h 5.56 l 0.45,-4.6289 h -140.7 v 4.6289 h 6.02 c 8.01,0 14.88,2.7698 20.59,8.3278 5.71,5.563 8.72,12.332 9.03,20.364 V 240.68 l -88.4,145.332 c -4.63,7.41 -11.19,13.66 -19.67,18.75 -8.5,5.09 -17.21,7.636 -26.15,7.636 h -6.49 v 4.633 h 153.21 v -4.633 h -6.02 c -6.79,0 -12.03,-3.089 -15.74,-9.257 -1.85,-3.403 -2.78,-6.711 -2.78,-9.95 0,-3.242 0.78,-6.41 2.32,-9.492 l 66.19,-120.34 68.5,120.34 c 1.85,3.082 2.78,6.25 2.78,9.492 0,3.239 -1.09,6.387 -3.24,9.489 -3.7,6.468 -8.96,9.718 -15.74,9.718 h -5.55 v 4.633 h 110.15 v -4.633" /><path
         id="path36"
         
         d="m 3764.77,86.7813 c -59.56,0.1601 -106.3,15.1987 -140.25,45.1287 -33.94,29.93 -50.91,70.969 -50.91,123.11 0,52.152 16.82,93.281 50.45,123.351 33.63,30.09 79.76,45.129 138.39,45.129 44.74,0 83.16,-8.328 115.26,-24.988 l 0.91,-79.614 h -3.7 c -15.73,56.774 -51.68,85.172 -107.84,85.172 -36.42,0 -65.19,-13.199 -86.32,-39.582 -21.14,-26.379 -31.71,-62.418 -31.71,-108.066 0,-45.672 10.11,-81.922 30.33,-108.774 20.2,-26.839 47.58,-40.726 82.14,-41.66 35.79,0 63.11,8.953 81.93,26.852 19.13,18.512 32.4,50.289 39.8,95.34 h 3.71 l 4.62,-79.61 c -24.99,-41.351 -67.26,-61.9294 -126.81,-61.7887" /><path
         id="path38"
         
         d="m 3937.87,97.6602 c 8.02,0 14.88,2.8518 20.6,8.5698 5.7,5.7 8.71,12.559 9.02,20.59 v 256.879 c -0.31,8.02 -3.32,14.813 -9.02,20.371 -5.72,5.551 -12.58,8.328 -20.6,8.328 h -6.01 v 4.633 h 140.7 l -0.47,-4.633 h -5.55 c -8.02,0 -14.97,-2.777 -20.83,-8.328 -5.87,-5.558 -8.8,-12.351 -8.8,-20.371 V 126.82 c 0,-8.031 2.93,-14.89 8.8,-20.59 5.86,-5.718 12.81,-8.5698 20.83,-8.5698 h 5.55 l 0.47,-4.6289 h -140.7 v 4.6289 h 6.01" /><path
         id="path40"
         
         d="m 4179.48,203.191 h 92.57 l -44.9,113.86 z M 4424.33,97.6602 h 4.16 v -4.6289 h -147.65 v 4.6289 h 4.17 c 6.78,0 11.8,2.0781 15.04,6.2498 3.24,4.16 4.86,8.102 4.86,11.801 0,3.711 -0.77,7.41 -2.31,11.109 l -22.69,56.93 h -108.3 l -24.07,-56.93 c -1.54,-4.011 -2.32,-7.789 -2.32,-11.34 0,-3.55 1.63,-7.41 4.87,-11.57 3.24,-4.1717 8.41,-6.2498 15.51,-6.2498 h 3.7 v -4.6289 h -99.06 v 4.6289 h 4.17 c 7.1,0 14.19,2.1601 21.29,6.4808 7.1,4.32 12.96,10.8 17.59,19.437 l 106.92,242.07 c 14.5,30.551 22.21,50.75 23.14,60.633 h 4.17 l 137.46,-301.769 c 4.63,-8.961 10.49,-15.672 17.59,-20.141 7.1,-4.4726 14.35,-6.7108 21.76,-6.7108" /><path
         id="path42"
         style="fill:none;stroke-width:70;stroke-linecap:butt;stroke-linejoin:miter;stroke-miterlimit:10;stroke-dasharray:none;stroke-opacity:1"
         d="m 2793.26,1153.63 c 0,-314.802 -255.19,-570.001 -570,-570.001 -314.8,0 -570,255.199 -570,570.001 0,314.81 255.2,570 570,570 314.81,0 570,-255.19 570,-570 z" /><path
         id="path44"
         
         d="m 1782.72,801.07 c -18.5,1.301 -36.97,2.93 -55.33,5.61 -78.17,11.308 -155.65,35.89 -225.91,71.992 -141.1,72.308 -256.86,188.448 -327.98,330.178 -61.17,121.97 -82.17,253.56 -76.08,388.86 l 12.31,273.56 c 4.03,-0.28 7.96,-0.56 11.98,-0.93 l 143.38,-6.45 c 45.95,-2.07 92.46,-2.78 138.57,-5.74 21.24,-1.26 42.46,-3 63.44,-5.62 176.44,-21.73 339.46,-109.44 457.41,-239.75 14.65,10.06 29.24,19.74 43.52,29.03 1.94,1.26 3.87,2.23 5.8,3.19 -30.02,34.35 -63.07,66.36 -99.02,95.52 -95.6,77.56 -210.37,132.52 -330.79,158.15 -77.06,16.38 -154.87,18.4 -233.2,21.93 l -227.8,10.25 c -0.29,0.01 -0.59,0.02 -0.89,-0.06 -15.56,0.3 -29.05,-12.3 -29.75,-27.95 l -12.6,-279.96 c -2.09,-46.54 -4.27,-92.88 -0.85,-139.48 6.47,-86.27 26.07,-170.08 58.96,-250.04 62.67,-152.01 174.2,-283.34 313.24,-370.739 29.92,-18.801 60.63,-35.269 92.13,-49.5 98.59,-44.641 204.82,-67.633 314.29,-72.941 -13.96,18.66 -25.38,39.242 -34.83,60.89" /><path
         id="path46"
         
         d="m 1109.73,1871.27 c 4.03,-0.28 7.96,-0.56 11.98,-0.93 l -12,0.54 0.02,0.39" /><path
         id="path48"
         
         d="m 1741.43,1446.49 c 3.32,5.25 6.85,10.38 10.76,15.31 9.09,11.47 18.97,22.61 29.35,33.5 -50.65,98.74 -121.62,187.31 -209.81,258.85 -51.18,41.55 -107.97,76.64 -168.07,104 -46.11,2.96 -92.62,3.67 -138.57,5.74 l -143.38,6.45 c 14.15,-1.03 28.29,-2.46 42.41,-4.18 234.46,-28.89 445.33,-174.35 558.08,-381.55 6.82,-12.53 13.17,-25.26 19.23,-38.12" /><path
         id="path50"
         
         d="m 1817.55,740.18 c -109.47,5.308 -215.7,28.3 -314.29,72.941 -26.36,1.379 -52.69,3.348 -78.85,7.188 -78.27,11.312 -155.65,35.902 -226.01,71.992 -141.1,72.32 -256.861,188.449 -327.986,330.189 -61.066,121.96 -82.164,253.55 -76.078,388.86 l 12.289,273.17 155.379,-7 c 29.523,-1.32 59.366,-2.07 89.086,-3.31 l 1.29,28.63 c 0.7,15.65 14.19,28.25 29.75,27.95 -24.68,1.41 -49.49,2.32 -74.29,3.44 l -227.899,10.25 c -15.843,0.72 -29.925,-12.06 -30.644,-28 l -12.594,-279.96 c -2.094,-46.54 -4.277,-92.89 -0.754,-139.49 6.371,-86.27 25.973,-170.07 58.953,-250.04 62.578,-152 174.203,-283.342 313.248,-370.74 124.07,-78.148 264.15,-116.109 409.79,-122.66 l 299.66,-13.481 c -0.02,0.02 -0.03,0.051 -0.05,0.071" /><path
         id="path52"
         
         d="m 2672.03,819.23 c 18.49,1.29 36.96,2.918 55.32,5.61 78.18,11.301 155.66,35.89 225.91,71.98 141.11,72.321 256.87,188.45 327.99,330.19 61.17,121.96 82.17,253.55 76.08,388.86 l -12.31,273.56 c -4.03,-0.28 -7.96,-0.56 -11.99,-0.94 l -143.37,-6.45 c -45.95,-2.06 -92.46,-2.78 -138.57,-5.74 -21.25,-1.25 -42.47,-2.99 -63.45,-5.61 -176.44,-21.74 -339.46,-109.44 -457.41,-239.76 -14.64,10.06 -29.23,19.74 -43.51,29.03 -1.95,1.27 -3.88,2.24 -5.81,3.19 30.03,34.35 63.08,66.36 99.02,95.52 95.61,77.56 210.37,132.52 330.8,158.15 77.06,16.39 154.86,18.41 233.19,21.93 l 227.8,10.25 c 0.3,0.02 0.59,0.03 0.89,-0.06 15.57,0.31 29.05,-12.3 29.76,-27.94 l 12.59,-279.96 c 2.1,-46.55 4.28,-92.89 0.85,-139.48 -6.47,-86.28 -26.07,-170.08 -58.95,-250.05 -62.68,-152 -174.2,-283.33 -313.24,-370.74 -29.92,-18.801 -60.63,-35.258 -92.14,-49.5 -98.58,-44.629 -204.81,-67.629 -314.28,-72.93 13.96,18.66 25.38,39.23 34.83,60.89" /><path
         id="path54"
         
         d="m 3345.02,1889.43 c -4.03,-0.28 -7.96,-0.56 -11.99,-0.94 l 12.01,0.55 -0.02,0.39" /><path
         id="path56"
         
         d="m 2713.32,1464.65 c -3.33,5.24 -6.86,10.38 -10.76,15.3 -9.09,11.47 -18.97,22.62 -29.36,33.51 50.66,98.73 121.63,187.31 209.81,258.85 51.18,41.54 107.98,76.64 168.08,103.99 46.11,2.96 92.62,3.68 138.57,5.74 l 143.37,6.45 c -14.15,-1.03 -28.28,-2.45 -42.4,-4.17 -234.46,-28.89 -445.34,-174.35 -558.08,-381.56 -6.83,-12.52 -13.18,-25.26 -19.23,-38.11" /><path
         id="path58"
         
         d="m 2637.2,758.34 c 109.47,5.301 215.7,28.301 314.28,72.93 26.36,1.378 52.7,3.359 78.86,7.199 78.27,11.312 155.65,35.89 226.01,71.992 141.1,72.309 256.86,188.449 327.98,330.179 61.07,121.96 82.17,253.56 76.08,388.86 l -12.29,273.17 -155.38,-6.99 c -29.52,-1.33 -59.36,-2.08 -89.08,-3.32 l -1.29,28.64 c -0.71,15.64 -14.19,28.25 -29.76,27.94 24.69,1.41 49.5,2.33 74.29,3.44 l 227.91,10.26 c 15.84,0.71 29.92,-12.07 30.64,-28.01 l 12.59,-279.95 c 2.1,-46.55 4.28,-92.89 0.76,-139.49 -6.38,-86.27 -25.97,-170.08 -58.96,-250.05 -62.57,-152 -174.2,-283.331 -313.24,-370.742 C 3222.52,816.25 3082.44,778.301 2936.81,771.75 l -299.67,-13.488 c 0.02,0.027 0.04,0.047 0.06,0.078" /><path
         id="path60"
         
         d="m 2366.03,2244.21 c -1.69,-139.55 -67.87,-283.52 -163.31,-385.01 14.44,0.05 28.87,0.11 43.31,0.16 -95.03,99.94 -164.81,245.15 -165.53,383.73 -0.72,138.43 68.43,284.5 162.51,385.02 -14.43,-0.06 -28.87,-0.12 -43.3,-0.18 96.23,-100.73 163.54,-244.2 166.32,-383.72 0.78,-39.37 62.03,-39.25 61.24,0.24 -3.1,155.87 -77,314.49 -184.43,426.96 -11.18,11.71 -32.21,11.68 -43.3,-0.17 -105.01,-112.19 -181.13,-273.68 -180.28,-428.39 0.84,-154.89 77.53,-315.38 183.63,-426.96 11.18,-11.76 32.21,-11.64 43.31,0.17 106.53,113.3 179.19,272.51 181.07,428.39 0.48,39.43 -60.77,39.2 -61.24,-0.24" /><path
         id="path62"
         
         d="m 2698.03,1959.21 c -69.66,-68 -173.3,-106.36 -270.43,-109.35 7.15,-7.09 14.3,-14.18 21.44,-21.27 2.43,96.15 39.63,202.18 107.62,270.88 67.91,68.63 174.06,106.57 270.03,109.74 -7.15,7.09 -14.3,14.18 -21.44,21.27 -2.23,-97.14 -39.79,-201.1 -107.22,-271.27 -19.03,-19.8 11.23,-49.95 30.32,-30.09 75.34,78.4 117.13,193.08 119.61,301.53 0.26,11.29 -10.12,21.65 -21.44,21.27 -107.12,-3.54 -224.3,-45.65 -300.19,-122.37 -75.97,-76.8 -117.3,-193.78 -120,-301.13 -0.29,-11.31 10.14,-21.62 21.44,-21.28 108.42,3.34 222.77,46.03 300.58,121.98 19.68,19.21 -10.64,49.3 -30.32,30.09" /><path
         id="path64"
         style="fill:none;stroke-width:10;stroke-linecap:butt;stroke-linejoin:miter;stroke-miterlimit:10;stroke-dasharray:none;stroke-opacity:1"
         d="m 2698.03,1959.21 c -69.66,-68 -173.3,-106.36 -270.43,-109.35 7.15,-7.09 14.3,-14.18 21.44,-21.27 2.43,96.15 39.63,202.18 107.62,270.88 67.91,68.63 174.06,106.57 270.03,109.74 -7.15,7.09 -14.3,14.18 -21.44,21.27 -2.23,-97.14 -39.79,-201.1 -107.22,-271.27 -19.03,-19.8 11.23,-49.95 30.32,-30.09 75.34,78.4 117.13,193.08 119.61,301.53 0.26,11.29 -10.12,21.65 -21.44,21.27 -107.12,-3.54 -224.3,-45.65 -300.19,-122.37 -75.97,-76.8 -117.3,-193.78 -120,-301.13 -0.29,-11.31 10.14,-21.62 21.44,-21.28 108.42,3.34 222.77,46.03 300.58,121.98 19.68,19.21 -10.64,49.3 -30.32,30.09 z" /><path
         id="path66"
         
         d="m 1746.72,1959.21 c 69.65,-68 173.3,-106.36 270.42,-109.35 -7.14,-7.09 -14.29,-14.18 -21.44,-21.27 -2.42,96.15 -39.62,202.18 -107.61,270.88 -67.92,68.63 -174.06,106.57 -270.03,109.74 7.14,7.09 14.29,14.18 21.44,21.27 2.22,-97.14 39.78,-201.1 107.22,-271.27 19.03,-19.8 -11.24,-49.95 -30.32,-30.09 -75.35,78.4 -117.13,193.08 -119.62,301.53 -0.25,11.29 10.13,21.65 21.45,21.27 107.11,-3.54 224.3,-45.65 300.18,-122.37 75.97,-76.8 117.3,-193.78 120.01,-301.13 0.28,-11.31 -10.15,-21.62 -21.44,-21.28 -108.42,3.34 -222.78,46.03 -300.58,121.98 -19.68,19.21 10.64,49.3 30.32,30.09" /><path
         id="path68"
         style="fill:none;stroke-width:10;stroke-linecap:butt;stroke-linejoin:miter;stroke-miterlimit:10;stroke-dasharray:none;stroke-opacity:1"
         d="m 1746.72,1959.21 c 69.65,-68 173.3,-106.36 270.42,-109.35 -7.14,-7.09 -14.29,-14.18 -21.44,-21.27 -2.42,96.15 -39.62,202.18 -107.61,270.88 -67.92,68.63 -174.06,106.57 -270.03,109.74 7.14,7.09 14.29,14.18 21.44,21.27 2.22,-97.14 39.78,-201.1 107.22,-271.27 19.03,-19.8 -11.24,-49.95 -30.32,-30.09 -75.35,78.4 -117.13,193.08 -119.62,301.53 -0.25,11.29 10.13,21.65 21.45,21.27 107.11,-3.54 224.3,-45.65 300.18,-122.37 75.97,-76.8 117.3,-193.78 120.01,-301.13 0.28,-11.31 -10.15,-21.62 -21.44,-21.28 -108.42,3.34 -222.78,46.03 -300.58,121.98 -19.68,19.21 10.64,49.3 30.32,30.09 z" /><path
         id="path70"
         
         d="m 2368.96,889.559 c -39.44,-18.739 -81.09,-28.098 -124.95,-28.098 -39.6,0 -77.44,7.758 -113.53,23.289 -36.09,15.531 -67.16,36.32 -93.21,62.359 -26.03,26.039 -46.82,57.111 -62.36,93.201 -15.53,36.09 -23.3,73.93 -23.3,113.53 0,65.48 19.42,123.96 58.26,175.44 38.83,51.47 88.86,86.34 150.07,104.61 -31.67,-50.25 -47.51,-104.61 -47.51,-163.1 0,-55.43 13.7,-106.75 41.12,-153.97 27.41,-47.2 64.72,-84.51 111.93,-111.93 47.2,-27.41 98.51,-41.109 153.95,-41.109 17.06,0 33.81,1.36 50.26,4.11 -27.71,-33.512 -61.3,-59.621 -100.73,-78.332 z m 195.53,134.521 c -1.07,6.09 -3.74,11.27 -8,15.54 -9.44,9.44 -20.4,11.43 -32.89,5.94 -33.5,-15.53 -68.23,-23.29 -104.17,-23.29 -45.07,0 -86.65,11.1 -124.72,33.34 -38.07,22.24 -68.22,52.39 -90.45,90.46 -22.24,38.07 -33.35,79.65 -33.35,124.73 0,35.02 6.93,68.3 20.79,99.82 13.85,31.53 33.88,59.17 60.07,82.92 10.05,9.44 12.34,20.41 6.86,32.9 -5.18,12.48 -14.47,18.42 -27.87,17.81 -46.59,-1.82 -90.76,-12.26 -132.49,-31.29 -41.72,-19.04 -77.59,-44.08 -107.59,-75.15 -30,-31.07 -53.76,-67.85 -71.27,-110.34 -17.51,-42.48 -26.27,-87.03 -26.27,-133.63 0,-47.51 9.29,-92.89 27.87,-136.14 18.58,-43.251 43.55,-80.559 74.93,-111.93 31.37,-31.372 68.68,-56.34 111.93,-74.93 43.25,-18.57 88.62,-27.871 136.14,-27.871 68.23,0 131.19,18.511 188.9,55.511 57.72,37.008 100.89,86.418 129.53,148.25 2.44,5.48 3.12,11.26 2.05,17.35" /></g></g></svg>